# xmcd
#
# Track frame offsets: 
#        150
#        38153
#        60887
#        81355
#        119937
#        133970
#        157408
#        179881
#        211418
#
# Disc length: 3228 seconds
#
# Revision: 0
# Processed by: cddbd v1.5.2PL0 Copyright (c) Steve Scherf et al.
# Submitted via: ExactAudioCopy v1.0b3
#
DISCID=900c9a09
DTITLE=Oxbow - - stone and towering edifice - LIVE at the BAM
DYEAR=2010
DGENRE=Retro
TTITLE0=3 O'Clock
TTITLE1=Cat and Mouse
TTITLE2=Stallkicker
TTITLE3=Sorry
TTITLE4=The Geometry of Business
TTITLE5=Frankly Frank
TTITLE6=Ecce Homo
TTITLE7=The Valley
TTITLE8=1000
EXTD=
EXTT0=
EXTT1=
EXTT2=
EXTT3=
EXTT4=
EXTT5=
EXTT6=
EXTT7=
EXTT8=
PLAYORDER=
